<svg fill="none" xmlns="http://www.w3.org/2000/svg" viewBox="0 0 144 39"><path d="M41.062.543h2.846V38.75h-2.846V.543ZM10.88 18.827h13.896v2.62H10.881v-2.62Z" fill="#ED145B"/><path d="M.251.543V38.75h2.846V21.447h.004v-2.62h-.003V3.162h29.516V.542M129.516.395h-22.682v38.207h2.846V24.356h.021v-2.619h-.02V3.015h19.616c6.898 0 11.606 3.166 11.606 9.224v.11c0 5.676-4.818 9.388-11.934 9.388h-8.978v2.62h8.813c7.993 0 14.946-4.149 14.946-12.172v-.11c0-7.368-5.803-11.68-14.234-11.68M90.273 21.737 76.983.25h-2.736l-23.67 38.48h2.955L75.561 3.361l11.482 18.376M94.645 28.807h-3.184l6.201 9.923h3.12" fill="#ED145B"/></svg>